<svg xmlns="http://www.w3.org/2000/svg" viewBox="0 0 67.32 81.93"><defs><style>.cls-1{fill:#fff;}</style></defs><title>Asset 1</title><g id="Layer_2" data-name="Layer 2"><g id="Layer_6" data-name="Layer 6"><path class="cls-1" d="M54.87,24.71c0,6.14-5.29,11.11-11.81,11.11H23.38V13.59H43.06C49.58,13.59,54.87,18.57,54.87,24.71Z"/><path class="cls-1" d="M67.32,62c0,11-9.84,20-22,20s-22-8.94-22-20V42h22C57.48,42,67.32,50.94,67.32,62Z"/><path class="cls-1" d="M17.16,14.93a36.4,36.4,0,0,0,.69,6.43,43,43,0,0,1,.74,7.45c.08,5.54-2.21,8.58-5,10.26,3.31,2,5.05,5.62,5,10.44a41.48,41.48,0,0,1-.74,7.4c-.42,2.39-.51,4.43-.69,6.53-.34,3.88.9,5.77,2.19,6.62a19,19,0,0,0,4.4,8.4h-.6c-10.66,0-16.52-5.17-16.52-14.54a50.68,50.68,0,0,1,.83-8,48.09,48.09,0,0,0,.8-7.41c0-2.65-.78-5.36-6.5-5.36H0V35.11H1.76c6,0,6.5-2.65,6.5-5.36a51.71,51.71,0,0,0-.8-7.7l0-.26A48.63,48.63,0,0,1,6.63,14c0-8.9,6-14,16.52-14H46.8a4.46,4.46,0,0,1,4.65,4.22V8.44h-28C18.93,8.44,17.16,10.26,17.16,14.93Z"/></g></g></svg>